<?xml version="1.0" encoding="UTF-8"?>
<svg version="1.1" xmlns="http://www.w3.org/2000/svg" width="32" height="32">
<path d="M0 0 C4.25033022 2.41319115 7.1390096 5.47326659 9 10 C9.98271992 14.31843119 10.90575629 18.43551187 8.625 22.375 C3.62260344 25.47172168 -0.68327527 28.03926652 -6.6875 27.9375 C-12.08239171 26.41064386 -16.50166935 24.48715216 -20 20 C-20.3125 16.6171875 -20.3125 16.6171875 -20 12.875 C-19.9175 11.63492187 -19.835 10.39484375 -19.75 9.1171875 C-19 6 -19 6 -17.0703125 4.703125 C-16.38710938 4.47109375 -15.70390625 4.2390625 -15 4 C-14.29875 3.29875 -13.5975 2.5975 -12.875 1.875 C-8.65288227 -0.87855504 -4.89872983 -1.02247632 0 0 Z M-1 3 C-0.34 4.32 0.32 5.64 1 7 C1.33 6.01 1.66 5.02 2 4 C1.01 3.67 0.02 3.34 -1 3 Z M-11 5 C-10 7 -10 7 -10 7 Z M-7 5 C-7 5.99 -7 6.98 -7 8 C-5.68 8 -4.36 8 -3 8 C-3 7.01 -3 6.02 -3 5 C-4.32 5 -5.64 5 -7 5 Z M-14 8 C-13.67 8.66 -13.34 9.32 -13 10 C-12.01 9.34 -11.02 8.68 -10 8 C-11.32 8 -12.64 8 -14 8 Z M0 8 C1.98 8.99 1.98 8.99 4 10 C4 9.34 4 8.68 4 8 C2.68 8 1.36 8 0 8 Z M5 9 C4.67 10.98 4.34 12.96 4 15 C4.66 14.01 5.32 13.02 6 12 C5.67 11.01 5.34 10.02 5 9 Z M-15 11 C-15 12.65 -15 14.3 -15 16 C-14.67 16 -14.34 16 -14 16 C-14 14.35 -14 12.7 -14 11 C-14.33 11 -14.66 11 -15 11 Z M-17 12 C-16 15 -16 15 -16 15 Z M3 15 C4 18 4 18 4 18 Z M5 15 C6 17 6 17 6 17 Z M-14 16 C-13 18 -13 18 -13 18 Z M-19 17 C-18 19 -18 19 -18 19 Z M8 17 C9 19 9 19 9 19 Z M-10 18 C-9.01 18.99 -8.02 19.98 -7 21 C-4.3727086 20.92466753 -4.3727086 20.92466753 -2 20 C-1.67 19.34 -1.34 18.68 -1 18 C-3.97 18 -6.94 18 -10 18 Z M-15 19 C-14 21 -14 21 -14 21 Z M-11 21 C-11.66 21.66 -12.32 22.32 -13 23 C-12.01 23.33 -11.02 23.66 -10 24 C-9.34 23.34 -8.68 22.68 -8 22 C-8.99 21.67 -9.98 21.34 -11 21 Z M0 21 C-0.99 21.66 -1.98 22.32 -3 23 C-5.6875 23.125 -5.6875 23.125 -8 23 C-8.33 23.66 -8.66 24.32 -9 25 C-7.56344146 25.08131463 -6.1255517 25.13933559 -4.6875 25.1875 C-3.88699219 25.22230469 -3.08648437 25.25710937 -2.26171875 25.29296875 C0.47851584 24.93801608 1.29171079 24.10633718 3 22 C2.01 21.67 1.02 21.34 0 21 Z " fill="#4FB7F3" transform="translate(21,2)"/>
<path d="M0 0 C4.36015976 3.55697243 5.71332115 6.32700258 6.8359375 11.81640625 C7.07692027 15.02377216 6.74305184 17.07789953 4.703125 19.609375 C0.45850629 23.07516459 -4.21768827 25.03020867 -9.6875 24.9375 C-15.01593224 23.42945314 -19.58297463 21.51047349 -23 17 C-22.75 14.75 -22.75 14.75 -22 13 C-20.68 12.67 -19.36 12.34 -18 12 C-17.4225 12.825 -16.845 13.65 -16.25 14.5 C-15.5075 15.325 -14.765 16.15 -14 17 C-10.65153839 17 -8.16377396 16.97346891 -5 16 C-3.31461399 14.00334686 -3.31461399 14.00334686 -2 12 C-1.34 12 -0.68 12 0 12 C-0.33 10.35 -0.66 8.7 -1 7 C-0.34 7 0.32 7 1 7 C0.34 5.02 -0.32 3.04 -1 1 C-0.67 0.67 -0.34 0.34 0 0 Z M2 6 C1.67 7.98 1.34 9.96 1 12 C1.66 11.01 2.32 10.02 3 9 C2.67 8.01 2.34 7.02 2 6 Z M0 12 C1 15 1 15 1 15 Z M2 12 C3 14 3 14 3 14 Z M-22 14 C-21 16 -21 16 -21 16 Z M5 14 C6 16 6 16 6 16 Z M-18 16 C-17 18 -17 18 -17 18 Z M-14 18 C-14.66 18.66 -15.32 19.32 -16 20 C-15.01 20.33 -14.02 20.66 -13 21 C-12.34 20.34 -11.68 19.68 -11 19 C-11.99 18.67 -12.98 18.34 -14 18 Z M-3 18 C-3.99 18.66 -4.98 19.32 -6 20 C-8.6875 20.125 -8.6875 20.125 -11 20 C-11.33 20.66 -11.66 21.32 -12 22 C-10.56344146 22.08131463 -9.1255517 22.13933559 -7.6875 22.1875 C-6.88699219 22.22230469 -6.08648437 22.25710937 -5.26171875 22.29296875 C-2.52148416 21.93801608 -1.70828921 21.10633718 0 19 C-0.99 18.67 -1.98 18.34 -3 18 Z " fill="#3542BD" transform="translate(24,5)"/>
<path d="M0 0 C3 1 3 1 4.5 3.9375 C4.995 4.948125 5.49 5.95875 6 7 C9.02544334 9.01696222 9.61067382 9.25811096 13 9.1875 C14.0209375 9.17783203 14.0209375 9.17783203 15.0625 9.16796875 C17.21758209 9.05697746 17.21758209 9.05697746 20 8 C19 11 19 11 16.875 12.25 C12.08079848 13.50066127 8.32992737 12.54761715 3.8125 10.6875 C1.01184498 9.00710699 -1.02541756 7.60644882 -3 5 C-2.875 2.8125 -2.875 2.8125 -2 1 C-1.34 0.67 -0.68 0.34 0 0 Z M-2 2 C-1 4 -1 4 -1 4 Z M2 4 C3 6 3 6 3 6 Z " fill="#4447DA" transform="translate(4,17)"/>
<path d="M0 0 C0.99 0.66 1.98 1.32 3 2 C3 2.66 3 3.32 3 4 C2.505 3.835 2.01 3.67 1.5 3.5 C-2.52782389 2.69443522 -7.23723595 1.84508562 -10.8125 4.1875 C-11.204375 4.785625 -11.59625 5.38375 -12 6 C-12.53625 6.804375 -13.0725 7.60875 -13.625 8.4375 C-15.07648934 10.86535448 -15.07648934 10.86535448 -15.5 13.25 C-15.665 13.8275 -15.83 14.405 -16 15 C-16.99 15.33 -17.98 15.66 -19 16 C-19 12.7 -19 9.4 -19 6 C-17.68 5.34 -16.36 4.68 -15 4 C-14.29875 3.29875 -13.5975 2.5975 -12.875 1.875 C-8.76126992 -0.80786745 -4.79849071 -0.69944102 0 0 Z " fill="#9675F1" transform="translate(21,2)"/>
<path d="M0 0 C0 1.32 0 2.64 0 4 C0.66 3.67 1.32 3.34 2 3 C1.8125 5.8125 1.8125 5.8125 1 9 C-1.62767906 11.00533402 -3.86788901 11.955963 -7 13 C-7.625 10.125 -7.625 10.125 -8 7 C-7.34 6.34 -6.68 5.68 -6 5 C-6 4.01 -6 3.02 -6 2 C-2.25 0 -2.25 0 0 0 Z M-4 2 C-3 4 -3 4 -3 4 Z " fill="#5CC7FA" transform="translate(14,5)"/>
<path d="M0 0 C0.66 0 1.32 0 2 0 C2 1.32 2 2.64 2 4 C2.66 4.66 3.32 5.32 4 6 C1.67190457 6.68473395 -0.66237777 7.34853151 -3 8 C-3.886875 8.28875 -4.77375 8.5775 -5.6875 8.875 C-8 9 -8 9 -10.3125 7.0625 C-10.869375 6.381875 -11.42625 5.70125 -12 5 C-10.68 5 -9.36 5 -8 5 C-5.42459787 4.83492354 -5.42459787 4.83492354 -3 4 C-1.31461399 2.00334686 -1.31461399 2.00334686 0 0 Z " fill="#594EDF" transform="translate(22,17)"/>
<path d="M0 0 C2.97 0.495 2.97 0.495 6 1 C6 4.96 6 8.92 6 13 C4 13 4 13 2.5 11.625 C2.005 11.08875 1.51 10.5525 1 10 C0.34 9.34 -0.32 8.68 -1 8 C-0.34 8 0.32 8 1 8 C1.66 6.68 2.32 5.36 3 4 C2.01 3.67 1.02 3.34 0 3 C0 2.01 0 1.02 0 0 Z " fill="#40B8F4" transform="translate(14,4)"/>
<path d="M0 0 C1.32 0.33 2.64 0.66 4 1 C4 3.97 4 6.94 4 10 C3.34 10 2.68 10 2 10 C1.67 10.99 1.34 11.98 1 13 C0.01 13 -0.98 13 -2 13 C-2 12.01 -2 11.02 -2 10 C-1.34 10 -0.68 10 0 10 C-0.2784375 8.9171875 -0.2784375 8.9171875 -0.5625 7.8125 C-1.01995307 4.87173027 -0.73516357 2.85896942 0 0 Z " fill="#387BE5" transform="translate(20,7)"/>
<path d="M0 0 C1.32 0 2.64 0 4 0 C4.66 0.66 5.32 1.32 6 2 C5.7603518 4.47636473 5.19869504 5.75614699 3.625 7.6875 C2 9 2 9 -1 10 C-0.7215625 8.824375 -0.7215625 8.824375 -0.4375 7.625 C0.25962266 5.02910225 0.25962266 5.02910225 -1 3 C-0.67 2.01 -0.34 1.02 0 0 Z " fill="#343BCC" transform="translate(25,17)"/>
<path d="M0 0 C3 1 3 1 4.6875 4.0625 C5.120625 5.031875 5.55375 6.00125 6 7 C3.36 6.67 0.72 6.34 -2 6 C-2.33 4.68 -2.66 3.36 -3 2 C-2.01 1.34 -1.02 0.68 0 0 Z M-2 2 C-1 4 -1 4 -1 4 Z " fill="#4444E7" transform="translate(4,17)"/>
<path d="M0 0 C0.33 1.32 0.66 2.64 1 4 C2.98 3.67 4.96 3.34 7 3 C7 3.99 7 4.98 7 6 C5.35 5.67 3.7 5.34 2 5 C2 5.66 2 6.32 2 7 C1.01 6.67 0.02 6.34 -1 6 C-0.67 4.02 -0.34 2.04 0 0 Z " fill="#3D90ED" transform="translate(9,15)"/>
<path d="M0 0 C0.721875 0.144375 1.44375 0.28875 2.1875 0.4375 C3.5796875 0.7159375 3.5796875 0.7159375 5 1 C6.66666667 1.33333333 8.33333333 1.66666667 10 2 C9.67 2.99 9.34 3.98 9 5 C5.65626525 4.44271087 2.96687001 3.64826111 0 2 C0 1.34 0 0.68 0 0 Z " fill="#4D4ED7" transform="translate(3,23)"/>
<path d="M0 0 C2 2 2 2 2.125 5.625 C2.08375 6.73875 2.0425 7.8525 2 9 C0.68 8.34 -0.64 7.68 -2 7 C-1.125 1.125 -1.125 1.125 0 0 Z " fill="#2946BC" transform="translate(28,10)"/>
<path d="M0 0 C5.625 -0.25 5.625 -0.25 9 2 C9 2.66 9 3.32 9 4 C5.7 3.34 2.4 2.68 -1 2 C-0.67 1.34 -0.34 0.68 0 0 Z " fill="#7F60F2" transform="translate(15,2)"/>
<path d="M0 0 C0.33 0.66 0.66 1.32 1 2 C3.02463255 2.65213292 3.02463255 2.65213292 5 3 C5 4.32 5 5.64 5 7 C3 7 3 7 1.5 5.625 C1.005 5.08875 0.51 4.5525 0 4 C-0.66 3.34 -1.32 2.68 -2 2 C-1.34 2 -0.68 2 0 2 C0 1.34 0 0.68 0 0 Z " fill="#3E9FEB" transform="translate(15,10)"/>
<path d="M0 0 C3.3 0 6.6 0 10 0 C10 0.33 10 0.66 10 1 C6.7 1 3.4 1 0 1 C0 0.67 0 0.34 0 0 Z " fill="#965DFF" transform="translate(11,0)"/>
<path d="M0 0 C0.66 0.33 1.32 0.66 2 1 C0.35 2.32 -1.3 3.64 -3 5 C-1.125 1.125 -1.125 1.125 0 0 Z " fill="#9754FF" transform="translate(6,3)"/>
<path d="M0 0 C1.98 0.99 1.98 0.99 4 2 C4 2.99 4 3.98 4 5 C2.68 3.35 1.36 1.7 0 0 Z " fill="#3628DB" transform="translate(24,3)"/>
<path d="M0 0 C0.33 0 0.66 0 1 0 C1 2.31 1 4.62 1 7 C0.67 7 0.34 7 0 7 C0 4.69 0 2.38 0 0 Z " fill="#6D48FF" transform="translate(0,12)"/>
<path d="M0 0 C0.33 0 0.66 0 1 0 C1 1.98 1 3.96 1 6 C0.67 6 0.34 6 0 6 C0 4.02 0 2.04 0 0 Z " fill="#2A2A94" transform="translate(31,13)"/>
<path d="M0 0 C4 1 4 1 4 1 Z " fill="#0000BF" transform="translate(14,31)"/>
<path d="M0 0 C3 1 3 1 3 1 Z " fill="#313178" transform="translate(19,30)"/>
<path d="M0 0 C3 1 3 1 3 1 Z " fill="#313178" transform="translate(10,30)"/>
<path d="M0 0 C2 1 2 1 2 1 Z " fill="#2A2AD4" transform="translate(23,28)"/>
<path d="M0 0 C2 1 2 1 2 1 Z " fill="#3F3FFF" transform="translate(7,28)"/>
<path d="M0 0 C2 1 2 1 2 1 Z " fill="#2A2AA9" transform="translate(19,25)"/>
<path d="M0 0 C2 1 2 1 2 1 Z " fill="#6A6AFF" transform="translate(16,21)"/>
<path d="" fill="#4A4AB4" transform="translate(0,0)"/>
<path d="" fill="#AA7FFF" transform="translate(0,0)"/>
<path d="" fill="#6A6AD4" transform="translate(0,0)"/>
<path d="M0 0 C2 1 2 1 2 1 Z " fill="#552AFF" transform="translate(21,1)"/>
<path d="M0 0 C2 1 2 1 2 1 Z " fill="#D4D4FF" transform="translate(9,1)"/>
<path d="" fill="#5555AA" transform="translate(0,0)"/>
<path d="" fill="#5555FF" transform="translate(0,0)"/>
<path d="" fill="#00007F" transform="translate(0,0)"/>
<path d="" fill="#7F7FFF" transform="translate(0,0)"/>
<path d="" fill="#007FFF" transform="translate(0,0)"/>
<path d="" fill="#7F7FFF" transform="translate(0,0)"/>
<path d="" fill="#5555D4" transform="translate(0,0)"/>
<path d="" fill="#5555D4" transform="translate(0,0)"/>
<path d="" fill="#486DDA" transform="translate(0,0)"/>
<path d="" fill="#5555FF" transform="translate(0,0)"/>
<path d="" fill="#AAAAFF" transform="translate(0,0)"/>
</svg>
